<svg xmlns="http://www.w3.org/2000/svg" width="800" height="450" viewBox="0 0 800 450"><rect width="100%" height="100%" fill="#0A0E27"/><path fill="#00D9FF" d="M239.23 224.815h44.4v54.11q-10.17 7.49-21.69 10.96t-24.65 3.47q-16.37 0-29.65-5.09-13.27-5.09-22.66-14.15t-14.48-21.65q-5.08-12.57-5.08-27.47 0-15.07 4.9-27.65t13.92-21.65 21.88-14.06q12.85-4.99 28.86-4.99 8.14 0 15.21 1.29 7.08 1.29 13.14 3.56t11.05 5.5q5 3.24 9.16 7.13l-7.12 11.28q-1.67 2.69-4.35 3.29t-5.83-1.35q-3.05-1.75-6.1-3.51-3.06-1.76-6.8-3.05-3.75-1.3-8.42-2.13t-10.78-.83q-9.89 0-17.9 3.33-8 3.33-13.64 9.53-5.64 6.19-8.69 14.89-3.06 8.69-3.06 19.42 0 11.47 3.29 20.49 3.28 9.02 9.25 15.26 5.96 6.25 14.38 9.53t18.78 3.28q7.4 0 13.23-1.57 5.82-1.57 11.37-4.25v-24.24h-16.83q-2.41 0-3.75-1.34t-1.34-3.28zm114.98 42.55v-16.01q-9.9.47-16.65 1.72t-10.82 3.19-5.83 4.53-1.76 5.64q0 6.01 3.56 8.6 3.56 2.6 9.3 2.6 7.03 0 12.16-2.55 5.14-2.54 10.04-7.72m-48.29-49.86-4.07-7.31q16.38-14.98 39.41-14.98 8.32 0 14.89 2.73t11.1 7.58q4.53 4.86 6.89 11.61t2.36 14.8v59.94h-10.36q-3.24 0-4.99-.97-1.76-.97-2.78-3.93l-2.03-6.85q-3.61 3.24-7.03 5.69-3.43 2.45-7.13 4.12-3.7 1.66-7.91 2.54-4.2.88-9.29.88-6.01 0-11.1-1.62t-8.79-4.86q-3.7-3.23-5.73-8.04-2.04-4.81-2.04-11.19 0-3.61 1.2-7.17 1.21-3.56 3.93-6.8 2.73-3.24 7.08-6.11 4.35-2.86 10.68-4.99 6.34-2.13 14.76-3.47t19.24-1.62v-5.55q0-9.53-4.07-14.11t-11.75-4.58q-5.55 0-9.2 1.3-3.66 1.3-6.43 2.91-2.78 1.62-5.04 2.92-2.27 1.29-5.04 1.29-2.41 0-4.07-1.25-1.67-1.24-2.69-2.91m114.89 74.37h-22.85v-94.91h13.97q4.44 0 5.83 4.17l1.48 7.03q2.49-2.78 5.22-5.09t5.83-3.98q3.1-1.66 6.66-2.63 3.56-.98 7.82-.98 8.97 0 14.75 4.86t8.65 12.9q2.22-4.71 5.55-8.09 3.33-3.37 7.31-5.5 3.97-2.13 8.46-3.15t9.02-1.02q7.86 0 13.97 2.41 6.1 2.4 10.26 7.03 4.17 4.62 6.34 11.29 2.17 6.66 2.17 15.26v60.4h-22.84v-60.4q0-9.07-3.98-13.65t-11.66-4.58q-3.51 0-6.52 1.21-3 1.2-5.27 3.47-2.27 2.26-3.56 5.68-1.3 3.43-1.3 7.87v60.4h-22.94v-60.4q0-9.53-3.84-13.88-3.83-4.35-11.23-4.35-5 0-9.3 2.46-4.3 2.45-8 6.7zm150.13-58.37h43.1q0-4.44-1.25-8.37t-3.74-6.89q-2.5-2.96-6.34-4.67t-8.93-1.71q-9.89 0-15.58 5.64t-7.26 16m58.27 13.78h-58.74q.56 7.31 2.59 12.63 2.04 5.32 5.37 8.79t7.91 5.18 10.13 1.71 9.57-1.29q4.02-1.3 7.03-2.87 3.01-1.58 5.27-2.87 2.27-1.3 4.4-1.3 2.86 0 4.25 2.13l6.57 8.33q-3.79 4.44-8.51 7.44-4.72 3.01-9.85 4.81-5.14 1.81-10.46 2.55-5.31.74-10.31.74-9.9 0-18.41-3.29-8.51-3.28-14.8-9.71t-9.89-15.91q-3.61-9.48-3.61-21.97 0-9.71 3.14-18.27 3.15-8.55 9.02-14.89 5.87-6.33 14.34-10.04 8.46-3.7 19.1-3.7 8.97 0 16.56 2.87 7.58 2.87 13.04 8.37 5.46 5.51 8.56 13.51t3.1 18.27q0 5.18-1.11 6.98t-4.26 1.8"/></svg>